<svg width="57" height="56" viewBox="0 0 57 56" fill="none" xmlns="http://www.w3.org/2000/svg">
<path d="M12.9507 6.38589C9.2336 7.09433 7.26001 11.4212 5.68038 14.3667C2.59748 20.1153 1.41995 26.7352 1.39161 33.1817C1.37906 36.0342 1.23759 38.9501 2.25165 41.6752C3.09065 43.9299 4.49083 46.0844 6.18495 47.828C9.56468 51.3064 15.389 53.4109 20.1751 54.0922C26.4604 54.9871 32.9829 55.7074 39.2796 54.5827C43.428 53.8417 48.2971 52.9751 51.1368 49.6337C54.0928 46.1557 55.0249 41.3768 55.3798 36.9938C55.6337 33.8576 55.5148 30.6405 55.46 27.4971C55.4121 24.7512 54.9417 22.4826 53.7055 20.0179C50.2125 13.0532 46.1068 7.09068 38.3049 4.3684C33.8211 2.80388 27.4721 -0.285706 22.5488 1.58181C20.1271 2.50043 16.935 3.46347 14.9001 5.08177C14.2467 5.60145 13.4893 5.98489 12.8589 6.48621C12.534 6.74459 11.8316 7.24151 11.7122 7.58969" stroke="white" stroke-width="1.2" stroke-linecap="round" stroke-linejoin="round"/>
<path d="M37.2145 12.8248C37.2461 13.6229 37.618 14.062 37.9862 14.7061C38.0865 14.8817 38.353 15.1744 38.353 15.3701C38.353 15.8141 36.6187 16.4202 36.1898 16.6981" stroke="white" stroke-width="1.2" stroke-linecap="round" stroke-linejoin="round"/>
<path d="M39.1501 11.9396C39.4883 12.6883 40.1716 13.2121 40.5417 13.9316C40.9122 14.6519 41.7637 13.5471 42.1988 13.243C42.8453 12.7914 43.5107 12.0761 44.2735 11.829" stroke="white" stroke-width="1.2" stroke-linecap="round" stroke-linejoin="round"/>
<path d="M37.4423 19.0222C38.3395 18.8798 39.2132 18.7805 40.0039 19.1944C41.103 19.7696 41.5823 20.984 42.1102 22.0102" stroke="white" stroke-width="1.2" stroke-linecap="round" stroke-linejoin="round"/>
<path d="M45.4119 14.5957C45.1021 14.8147 43.9835 15.3006 43.9319 15.7024C43.8791 16.1125 43.2257 16.656 42.9704 16.975C42.5567 17.4921 43.2661 18.5554 43.5903 18.9055C43.8927 19.2321 44.2133 19.8231 44.615 20.0183" stroke="white" stroke-width="1.2" stroke-linecap="round" stroke-linejoin="round"/>
<path d="M20.8621 27.6828C20.7563 27.5398 20.2865 26.4554 20.8192 26.9732C21.0093 27.158 20.6287 27.3071 20.8621 27.3071" stroke="white" stroke-width="1.2" stroke-linecap="round" stroke-linejoin="round"/>
<path d="M33.231 27.683C34.2542 26.981 35.0037 27.4952 33.8108 27.4952" stroke="white" stroke-width="1.2" stroke-linecap="round" stroke-linejoin="round"/>
<path d="M33.8108 27.4952C32.7125 26.0099 34.3752 27.1136 33.8967 27.5787C33.2644 28.1933 33.231 26.8564 33.231 26.5559" stroke="white" stroke-width="1.2" stroke-linecap="round" stroke-linejoin="round"/>
<path d="M15.4607 20.9482C16.8965 21.0355 18.3102 21.4533 19.6887 21.8344C20.9328 22.1783 22.1578 22.602 23.3132 23.17C23.9179 23.4672 24.8016 23.7862 25.2907 24.2616" stroke="white" stroke-width="1.2" stroke-linecap="round" stroke-linejoin="round"/>
<path d="M29.7302 24.6467C30.887 23.5663 32.0571 22.4763 33.2799 21.466C33.586 21.2131 33.9279 20.8912 34.328 20.7939" stroke="white" stroke-width="1.2" stroke-linecap="round" stroke-linejoin="round"/>
<path d="M19.6623 41.599C21.4046 38.6048 23.2837 35.6827 25.3612 32.9004C25.4734 32.7502 25.5065 32.6201 25.7224 32.6778C26.8304 32.974 27.8882 33.7075 28.8933 34.2189C30.8496 35.2142 32.9264 36.0552 34.8124 37.1727C35.2867 37.4537 35.737 37.7654 36.2305 38.0117C36.445 38.1187 36.6583 38.2624 36.8647 38.3627" stroke="white" stroke-width="1.2" stroke-linecap="round" stroke-linejoin="round"/>
</svg>
