<svg width="56" height="56" viewBox="0 0 56 56" fill="none" xmlns="http://www.w3.org/2000/svg">
<path d="M12.5726 6.38589C8.85554 7.09433 6.88195 11.4212 5.30233 14.3667C2.21943 20.1153 1.0419 26.7352 1.01355 33.1817C1.00101 36.0342 0.859537 38.9501 1.8736 41.6752C2.7126 43.9299 4.11278 46.0844 5.80689 47.828C9.18663 51.3064 15.0109 53.4109 19.797 54.0922C26.0824 54.9871 32.6048 55.7074 38.9016 54.5827C43.05 53.8417 47.919 52.9751 50.7588 49.6337C53.7147 46.1557 54.6468 41.3768 55.0017 36.9938C55.2556 33.8576 55.1368 30.6405 55.082 27.4971C55.0341 24.7512 54.5636 22.4826 53.3275 20.0179C49.8344 13.0532 45.7287 7.09068 37.9269 4.3684C33.443 2.80388 27.0941 -0.285706 22.1708 1.58181C19.749 2.50043 16.5569 3.46347 14.5221 5.08177C13.8686 5.60145 13.1112 5.98489 12.4809 6.48621C12.156 6.74459 11.4535 7.24151 11.3341 7.58969" stroke="white" stroke-width="1.2" stroke-linecap="round" stroke-linejoin="round"/>
<path d="M18.9887 25.6611C18.7988 25.7601 18.6413 25.7996 18.6413 25.66C18.6413 25.4383 18.6286 25.2587 18.9828 25.1756C19.0019 25.1711 19.02 25.1671 19.0372 25.1635C19.0204 25.0356 19.5243 24.8727 19.5372 25.1974C19.5385 25.232 19.5391 25.2661 19.5384 25.2992C19.5372 25.3579 19.5322 25.4137 19.5211 25.4644C19.4824 25.6403 19.37 25.7532 19.0892 25.7036C19.0477 25.6962 19.0143 25.6812 18.9887 25.6611Z" fill="white"/>
<path d="M19.638 25.2192C19.6133 25.2484 18.6413 26.0068 18.6413 25.66C18.6413 25.4383 18.6286 25.2587 18.9828 25.1756C19.5699 25.0379 19.1994 25.3371 19.0556 25.1974C18.924 25.0695 19.5232 24.843 19.5372 25.1974C19.5494 25.5059 19.4964 25.7755 19.0892 25.7036C18.7954 25.6516 18.9114 25.2162 19.2852 25.328C20.1893 25.5984 18.8317 26.8551 18.8317 25.807" stroke="white" stroke-width="1.2" stroke-linecap="round" stroke-linejoin="round"/>
<path d="M18.961 26.1008C19.0555 26.455 19.1143 26.8881 18.7813 26.6724C18.5474 26.5208 18.6115 25.9361 18.6298 25.6926C18.6289 25.6397 18.6301 25.5861 18.6301 25.5349C18.6301 25.3034 18.9199 25.1328 19.2295 25.0725C19.4336 24.9214 19.7427 24.8905 19.8844 25.1267C19.9064 25.1633 19.9248 25.2013 19.9397 25.2402C20.1805 25.5752 20.1208 26.2997 19.7948 26.4438C19.5694 26.5434 19.4107 26.5399 19.299 26.4724C19.1793 26.4002 19.1135 26.2545 19.0774 26.0836C19.0347 26.0942 18.9949 26.1002 18.961 26.1008Z" fill="white"/>
<path d="M18.8317 25.709C18.8717 25.7802 19.2979 27.0071 18.7813 26.6724C18.5457 26.5197 18.6125 25.9274 18.6301 25.6873C18.6583 25.3048 19.6497 25.2417 19.5317 25.758C19.489 25.9445 19.1329 26.1009 18.9549 26.1009C18.5987 26.1009 18.6301 25.7885 18.6301 25.5349C18.6301 25.1128 19.5936 24.893 19.8844 25.1756C20.1876 25.4703 20.1438 26.2896 19.7948 26.4438C19.0247 26.7841 19.0333 25.9208 19.0333 25.4151C19.0333 25.0405 19.663 24.7578 19.8844 25.1267C20.209 25.6676 19.7426 26.4928 19.1341 26.4928" stroke="white" stroke-width="1.2" stroke-linecap="round" stroke-linejoin="round"/>
<path d="M34.4502 25.2887C34.4463 25.1409 34.5302 25.0142 34.7787 25.0232C35.187 25.0378 35.2738 25.5764 34.9988 25.7866C34.9578 25.8179 34.9087 25.842 34.8515 25.8559C34.6508 25.9046 34.2375 26.0021 34.1012 25.796C34.0463 25.7131 33.9825 25.5858 33.9675 25.4721C33.9515 25.3507 33.9913 25.2447 34.1572 25.2245C34.2406 25.2144 34.3437 25.2394 34.4502 25.2887Z" fill="white"/>
<path d="M34.6555 26.1008C34.322 26.1462 33.8492 26.2984 33.8492 25.8559C33.8492 25.5423 34.006 25.3171 34.3476 25.3171C34.7572 25.3171 34.9238 25.611 34.4091 25.611C33.864 25.611 35.1132 25.4165 34.8347 25.6872C34.6071 25.9084 34.1271 24.9997 34.7787 25.0232C35.2479 25.04 35.2925 25.7487 34.8515 25.8559C34.6508 25.9046 34.2375 26.0021 34.1012 25.796C33.9878 25.6245 33.8359 25.2636 34.1572 25.2245C34.5146 25.1811 35.2318 25.7823 35.0363 26.177C34.9283 26.3951 34.32 26.6084 34.0732 26.5906C33.7831 26.5698 33.8492 25.9862 33.8492 25.8069" stroke="white" stroke-width="1.2" stroke-linecap="round" stroke-linejoin="round"/>
<path d="M33.8491 25.807C34.0907 25.8119 34.2538 25.8401 34.4539 25.905" stroke="white" stroke-width="1.2" stroke-linecap="round" stroke-linejoin="round"/>
<path d="M20.142 39.1305C20.1877 37.751 20.8773 37.1949 21.973 36.4309C22.9143 35.7745 23.941 35.1343 24.9798 34.6294C26.56 33.8614 28.2794 32.9133 30.1145 33.0619C31.01 33.1345 32.3098 33.9482 32.8414 34.6457C33.5235 35.5409 34.5008 36.6219 34.8571 37.661" stroke="white" stroke-width="1.2" stroke-linecap="round" stroke-linejoin="round"/>
<path d="M36.7191 28.6284C36.9707 29.0276 37.2769 29.4183 37.4903 29.8332" stroke="white" stroke-width="1.2" stroke-linecap="round" stroke-linejoin="round"/>
<path d="M38.5647 31.306C38.9181 31.7988 39.1581 32.3585 39.5012 32.8589" stroke="white" stroke-width="1.2" stroke-linecap="round" stroke-linejoin="round"/>
<path d="M40.4651 34.3044C40.6653 35.1189 41.1168 35.8577 41.4292 36.6337" stroke="white" stroke-width="1.2" stroke-linecap="round" stroke-linejoin="round"/>
<path d="M16.8915 28.6893C16.7985 29.1247 16.5121 29.4073 16.3054 29.788C16.1711 30.0353 15.9821 30.2621 15.8031 30.4797" stroke="white" stroke-width="1.2" stroke-linecap="round" stroke-linejoin="round"/>
<path d="M15.0074 31.7412C14.9718 32.2258 14.7711 32.6599 14.6516 33.1247C14.6091 33.2897 14.5684 33.436 14.4632 33.5723" stroke="white" stroke-width="1.2" stroke-linecap="round" stroke-linejoin="round"/>
<path d="M13.6232 35.5872C13.6232 35.8516 13.7299 36.4007 13.521 36.6263C13.3646 36.7953 13.2049 37.0609 13.2049 37.295" stroke="white" stroke-width="1.2" stroke-linecap="round" stroke-linejoin="round"/>
</svg>
