<svg width="56" height="56" viewBox="0 0 56 56" fill="none" xmlns="http://www.w3.org/2000/svg">
<path d="M12.6817 6.38589C8.96467 7.09433 6.99109 11.4212 5.41146 14.3667C2.32856 20.1153 1.15103 26.7352 1.12268 33.1817C1.11014 36.0342 0.968668 38.9501 1.98273 41.6752C2.82173 43.9299 4.22191 46.0844 5.91603 47.828C9.29576 51.3064 15.12 53.4109 19.9062 54.0922C26.1915 54.9871 32.714 55.7074 39.0107 54.5827C43.1591 53.8417 48.0282 52.9751 50.8679 49.6337C53.8238 46.1557 54.7559 41.3768 55.1108 36.9938C55.3648 33.8576 55.2459 30.6405 55.1911 27.4971C55.1432 24.7512 54.6728 22.4826 53.4366 20.0179C49.9436 13.0532 45.8379 7.09068 38.036 4.3684C33.5522 2.80388 27.2032 -0.285706 22.2799 1.58181C19.8582 2.50043 16.6661 3.46347 14.6312 5.08177C13.9777 5.60145 13.2204 5.98489 12.59 6.48621C12.2651 6.74459 11.5627 7.24151 11.4433 7.58969" stroke="white" stroke-width="1.2" stroke-linecap="round" stroke-linejoin="round"/>
<path d="M18.8715 26.4249C18.9822 26.7925 19.0738 27.4155 19.0345 27.5641C18.8783 28.1546 17.812 28.2539 17.6355 27.6533C17.5698 27.4298 17.561 27.3306 17.5764 27.2971C17.1027 26.7172 17.5482 25.9432 18.2432 25.8587C18.3027 25.8515 18.3639 25.8548 18.424 25.8665C18.7233 25.9249 18.9939 26.1934 18.8715 26.4249Z" fill="white"/>
<path d="M18.4611 27.0514C16.9263 26.3428 17.9265 25.5388 18.7478 26.1597C18.8975 26.2729 19.0882 27.3611 19.0345 27.5641C18.8783 28.1546 17.812 28.2539 17.6355 27.6533C17.4071 26.8763 17.8668 27.6024 17.6355 27.3635C17.0686 26.7781 17.5214 25.9464 18.2432 25.8587C18.6818 25.8054 19.2182 26.3222 18.6675 26.6055C17.435 27.2398 18.5164 24.9519 19.0803 26.0482" stroke="white" stroke-width="1.2" stroke-linecap="round" stroke-linejoin="round"/>
<path d="M33.917 26.7822C33.984 26.8008 34.0377 26.8182 34.0644 26.8276C34.519 26.9883 33.7396 27.4007 33.917 26.7822Z" fill="white"/>
<path d="M35.1421 27.1253C36.4854 27.4191 34.295 28.3469 33.6333 27.9523C33.2901 27.7475 33.2452 27.1412 33.31 26.7945C33.3459 26.6027 33.9508 26.7874 34.0644 26.8276C34.5316 26.9927 33.6955 27.4237 33.934 26.7284C34.1352 26.1414 35.6209 26.4842 34.3253 27.3238" stroke="white" stroke-width="1.2" stroke-linecap="round" stroke-linejoin="round"/>
<path d="M20.6445 34.3694C20.7589 35.6201 22.075 36.0059 23.0438 36.5527C24.1441 37.1737 25.5811 37.7198 26.8724 37.7435C29.5425 37.7925 30.1649 35.0891 30.8541 33.0793" stroke="white" stroke-width="1.2" stroke-linecap="round" stroke-linejoin="round"/>
</svg>
