<svg width="56" height="56" viewBox="0 0 56 56" fill="none" xmlns="http://www.w3.org/2000/svg">
<path d="M12.3286 6.38589C8.61153 7.09433 6.63794 11.4212 5.05831 14.3667C1.97541 20.1153 0.797878 26.7352 0.769535 33.1817C0.756994 36.0342 0.615518 38.9501 1.62958 41.6752C2.46858 43.9299 3.86876 46.0844 5.56288 47.828C8.94261 51.3064 14.7669 53.4109 19.553 54.0922C25.8383 54.9871 32.3608 55.7074 38.6576 54.5827C42.806 53.8417 47.675 52.9751 50.5148 49.6337C53.4707 46.1557 54.4028 41.3768 54.7577 36.9938C55.0116 33.8576 54.8928 30.6405 54.838 27.4971C54.7901 24.7512 54.3196 22.4826 53.0835 20.0179C49.5904 13.0532 45.4847 7.09068 37.6828 4.3684C33.199 2.80388 26.8501 -0.285706 21.9267 1.58181C19.505 2.50043 16.3129 3.46347 14.278 5.08177C13.6246 5.60145 12.8672 5.98489 12.2369 6.48621C11.912 6.74459 11.2095 7.24151 11.0901 7.58969" stroke="white" stroke-width="1.2" stroke-linecap="round" stroke-linejoin="round"/>
<path d="M19.1675 26.5606C18.9535 26.5659 18.7513 26.4405 18.7783 26.1655C18.8255 25.6839 20.1651 25.0442 20.108 25.765C20.099 25.8792 20.0467 25.9507 19.9726 25.9916C20.4115 26.4512 20.1417 27.5154 19.4588 27.2941C19.2934 27.2406 19.1593 26.8457 19.1675 26.5606Z" fill="white"/>
<path d="M19.3214 26.1169C20.0408 26.1519 20.0772 26.7723 19.3776 26.7723C19.1317 26.7723 19.2196 26.5538 19.4338 26.5538C19.773 26.5538 19.5524 26.7304 19.3838 26.5963C18.9756 26.2716 19.2698 24.9955 19.5961 25.947C19.8349 26.6433 18.7172 26.7894 18.7783 26.1655C18.8255 25.6839 20.1651 25.0442 20.108 25.765C20.0613 26.3546 18.8649 25.8055 19.4338 25.7893C20.5299 25.7579 20.3321 27.5771 19.4588 27.2941C19.1561 27.1961 18.958 25.9543 19.5462 26.3354" stroke="white" stroke-width="1.2" stroke-linecap="round" stroke-linejoin="round"/>
<path d="M34.5976 26.1822C34.5801 26.2124 34.5426 26.244 34.479 26.2749C34.3236 26.3504 34.173 26.263 34.0655 26.1083C33.8267 25.765 33.8 25.0906 34.4041 25.1341C34.7935 25.1621 35.0228 25.9814 34.5976 26.1822Z" fill="white"/>
<path d="M34.6038 26.3356C34.88 26.7159 35.0735 27.0396 34.4915 27.1851C34.0712 27.2901 33.9655 26.9753 33.9359 26.6147C33.9097 26.2972 33.981 26.0218 34.3541 26.0079C34.5477 26.0007 34.7487 26.1438 34.479 26.2749C33.9786 26.5181 33.528 25.071 34.4041 25.1341C34.848 25.166 35.0839 26.2263 34.3791 26.2263" stroke="white" stroke-width="1.2" stroke-linecap="round" stroke-linejoin="round"/>
<path d="M33.8173 25.571C34.0562 25.4058 34.8305 24.8402 34.9972 25.3586C35.0824 25.6238 35.1009 25.9854 34.8536 26.1778C34.4507 26.491 34.3641 26.2045 34.1544 25.8986" stroke="white" stroke-width="1.2" stroke-linecap="round" stroke-linejoin="round"/>
<path d="M19.0967 39.224C23.6789 39.224 28.2324 39.2452 32.7997 39.0116C33.7709 38.9619 34.7549 39.0055 35.7276 39.0055C36.2566 39.0055 36.8064 38.7288 37.3008 38.5686" stroke="white" stroke-width="1.2" stroke-linecap="round" stroke-linejoin="round"/>
</svg>
