<svg width="59" height="56" viewBox="0 0 59 56" fill="none" xmlns="http://www.w3.org/2000/svg">
<path d="M12.7066 6.27578C8.98958 6.98422 7.01599 11.3111 5.43637 14.2566C2.35346 20.0052 1.17593 26.6251 1.14759 33.0716C1.13505 35.9241 0.99357 38.84 2.00764 41.5651C2.84663 43.8198 4.24681 45.9743 5.94093 47.7179C9.32066 51.1963 15.1449 53.3008 19.9311 53.9821C26.2164 54.877 32.7389 55.5973 39.0356 54.4726C43.184 53.7316 48.0531 52.865 50.8928 49.5236C53.8487 46.0456 54.7808 41.2667 55.1357 36.8836C55.3897 33.7475 55.2708 30.5304 55.216 27.387C55.1681 24.6411 54.6977 22.3725 53.4615 19.9078C49.9685 12.9431 45.8628 6.98057 38.0609 4.25829C33.5771 2.69377 27.2281 -0.395814 22.3048 1.47171C19.8831 2.39032 16.691 3.35336 14.6561 4.97166C14.0026 5.49134 13.2453 5.87478 12.6149 6.3761C12.29 6.63449 11.5876 7.1314 11.4682 7.47959" stroke="white" stroke-width="1.2" stroke-linecap="round" stroke-linejoin="round"/>
<path d="M32.6478 24.9219C35.4659 24.9219 38.284 24.9219 41.1021 24.9219" stroke="white" stroke-width="1.2" stroke-linecap="round" stroke-linejoin="round"/>
<path d="M13.5551 25.2571C15.4104 25.2571 17.431 25.4961 19.2714 25.2507C20.075 25.1435 20.8281 25.0259 21.6478 25.0259" stroke="white" stroke-width="1.2" stroke-linecap="round" stroke-linejoin="round"/>
<path d="M30.775 41.8794C30.627 42.2526 30.428 42.6742 30.1437 42.955C30.0517 43.1454 29.9557 43.3147 29.8646 43.4448C29.2191 44.3657 28.1801 43.9499 27.2962 43.9499C24.9983 43.9499 25.0197 41.4777 25.391 39.5719C25.4635 39.1998 25.5551 38.6241 25.8321 38.3187C25.8528 38.2008 25.8817 38.086 25.9193 37.9754C26.4454 36.4299 28.7905 37.0364 29.8196 37.6074C31.1989 38.3727 31.347 40.4368 30.775 41.8794Z" fill="white"/>
<path d="M26.4813 38.1126C26.4813 39.7136 26.1178 41.6754 27.448 42.7525C27.9709 43.176 28.8776 43.3199 29.5049 43.2702C30.1601 43.2182 30.5349 42.4851 30.775 41.8794C31.347 40.4368 31.1989 38.3727 29.8196 37.6074C28.7905 37.0364 26.4454 36.4299 25.9193 37.9754C25.3298 39.7071 26.8894 42.4832 28.6282 41.3431C29.3722 40.8552 29.3523 40.5769 29.3082 39.6218C29.256 38.4933 28.6885 37.8135 27.6559 38.0128C26.955 38.148 27.0269 39.4782 27.1332 39.996C27.3651 41.125 28.911 42.0146 29.7578 41.0749C30.4961 40.2557 30.3936 38.1319 29.1902 37.913C28.1268 37.7196 27.6292 39.3518 27.5154 40.2829C27.4069 41.1706 28.5417 41.4614 29.1621 41.1809C30.2996 40.6666 29.7376 38.305 28.8192 37.8881C26.3554 36.7695 24.7638 40.4715 26.9871 41.9792C28.3877 42.929 29.0241 39.0918 28.1448 38.2934C27.7335 37.9199 26.7522 38.0922 26.2565 38.1126C25.6304 38.1383 25.4921 39.0531 25.391 39.5719C25.0197 41.4777 24.9983 43.9499 27.2962 43.9499C28.1801 43.9499 29.2191 44.3657 29.8646 43.4448C30.2119 42.9492 30.6289 41.8839 30.6289 41.2558" stroke="white" stroke-width="1.2" stroke-linecap="round" stroke-linejoin="round"/>
<path d="M49.8763 7.42913C50.8177 7.1079 51.7844 6.77591 52.7445 6.49395C52.9276 6.44019 53.2538 6.25658 53.2538 6.52583C53.2538 7.66486 53.0126 8.80195 53.0126 9.94774C53.0126 10.2454 52.8134 11.3342 53.2538 11.0848C54.2654 10.5119 55.4262 10.0589 56.5107 9.62893" stroke="white" stroke-width="1.2" stroke-linecap="round" stroke-linejoin="round"/>
<path d="M55.2921 5.59612C55.4466 5.4649 56.2694 4.63836 56.4023 5.08087C56.5373 5.53019 56.618 6.00165 56.7544 6.44771C56.7997 6.59606 56.9003 7.6009 57.0552 7.65353C57.3042 7.73813 57.8215 6.92524 58 6.75543" stroke="white" stroke-width="1.2" stroke-linecap="round" stroke-linejoin="round"/>
</svg>
