<svg width="28" height="36" viewBox="0 0 28 36" fill="none" xmlns="http://www.w3.org/2000/svg">
<path d="M9.38538 32.646C10.2028 34.5503 12.0528 35.883 14.2001 35.883C16.3474 35.883 18.1972 34.5503 19.0148 32.646H9.38538Z" fill="black"/>
<path d="M14.1995 3.42826C15.6166 3.42826 16.9772 3.68589 18.2398 4.15756V3.99729C18.2398 1.79317 16.4996 0 14.3606 0H14.0392C11.9001 0 10.1599 1.79317 10.1599 3.99729V4.15552C11.4219 3.68526 12.7821 3.42826 14.1995 3.42826Z" fill="black"/>
<path d="M26.9512 30.5398H1.44886C0.966394 30.5398 0.524458 30.2045 0.424108 29.7181C0.324779 29.2366 0.537742 28.7614 0.9698 28.5557C1.07233 28.4872 1.84407 27.9311 2.61669 26.2488C4.03569 23.1593 4.33354 18.8073 4.33354 15.7005C4.33354 10.0947 8.75951 5.53418 14.1997 5.53418C19.627 5.53418 24.0448 10.0727 24.0657 15.6601C24.0662 15.6735 24.0665 15.687 24.0665 15.7005C24.0665 18.8073 24.3643 23.1593 25.7833 26.2488C26.556 27.9311 27.3276 28.4873 27.4302 28.5557C27.8623 28.7614 28.0753 29.2366 27.9759 29.7181C27.8756 30.2044 27.4337 30.5398 26.9512 30.5398ZM27.4417 28.5632H27.4424H27.4417Z" fill="black"/>
</svg>
