<svg width="21" height="22" viewBox="0 0 21 22" fill="none" xmlns="http://www.w3.org/2000/svg">
<path d="M19.4791 3.66661C19.4791 5.31201 18.1454 6.64589 16.5 6.64589C14.8546 6.64589 13.5209 5.31201 13.5209 3.66661C13.5209 2.02138 14.8546 0.6875 16.5 0.6875C18.1454 0.6875 19.4791 2.02138 19.4791 3.66661Z" fill="black"/>
<path d="M16.5 7.33339C14.4778 7.33339 12.8334 5.68883 12.8334 3.66661C12.8334 1.64456 14.4778 0 16.5 0C18.5222 0 20.1666 1.64456 20.1666 3.66661C20.1666 5.68883 18.5222 7.33339 16.5 7.33339ZM16.5 1.375C15.2359 1.375 14.2084 2.40356 14.2084 3.66661C14.2084 4.92982 15.2359 5.95839 16.5 5.95839C17.764 5.95839 18.7916 4.92982 18.7916 3.66661C18.7916 2.40356 17.764 1.375 16.5 1.375Z" fill="black"/>
<path d="M19.4791 18.3334C19.4791 19.9786 18.1454 21.3125 16.5 21.3125C14.8546 21.3125 13.5209 19.9786 13.5209 18.3334C13.5209 16.688 14.8546 15.3541 16.5 15.3541C18.1454 15.3541 19.4791 16.688 19.4791 18.3334Z" fill="black"/>
<path d="M16.5 22C14.4778 22 12.8334 20.3555 12.8334 18.3334C12.8334 16.3112 14.4778 14.6666 16.5 14.6666C18.5222 14.6666 20.1666 16.3112 20.1666 18.3334C20.1666 20.3555 18.5222 22 16.5 22ZM16.5 16.0416C15.2359 16.0416 14.2084 17.0702 14.2084 18.3334C14.2084 19.5965 15.2359 20.625 16.5 20.625C17.764 20.625 18.7916 19.5965 18.7916 18.3334C18.7916 17.0702 17.764 16.0416 16.5 16.0416Z" fill="black"/>
<path d="M6.64589 11C6.64589 12.6454 5.31201 13.9791 3.66661 13.9791C2.02138 13.9791 0.6875 12.6454 0.6875 11C0.6875 9.35458 2.02138 8.02087 3.66661 8.02087C5.31201 8.02087 6.64589 9.35458 6.64589 11Z" fill="black"/>
<path d="M3.66661 14.6666C1.64456 14.6666 0 13.0222 0 11C0 8.97777 1.64456 7.33337 3.66661 7.33337C5.68883 7.33337 7.33339 8.97777 7.33339 11C7.33339 13.0222 5.68883 14.6666 3.66661 14.6666ZM3.66661 8.70837C2.40256 8.70837 1.375 9.73677 1.375 11C1.375 12.2632 2.40256 13.2916 3.66661 13.2916C4.93083 13.2916 5.95839 12.2632 5.95839 11C5.95839 9.73677 4.93083 8.70837 3.66661 8.70837Z" fill="black"/>
<path d="M5.83097 10.5601C5.5119 10.5601 5.20205 10.3941 5.03336 10.0971C4.78311 9.65806 4.93719 9.09796 5.37628 8.84669L13.8819 3.9976C14.321 3.74549 14.8811 3.89958 15.1324 4.34034C15.3826 4.77943 15.2285 5.33953 14.7895 5.5908L6.28365 10.4399C6.14065 10.5215 5.98489 10.5601 5.83097 10.5601Z" fill="black"/>
<path d="M14.3358 18.1226C14.1817 18.1226 14.0259 18.084 13.8829 18.0024L5.37712 13.1533C4.93804 12.903 4.78412 12.3429 5.03438 11.9028C5.28363 11.4629 5.84458 11.308 6.28467 11.5601L14.7904 16.4092C15.2295 16.6595 15.3834 17.2196 15.1332 17.6596C14.9637 17.9566 14.6538 18.1226 14.3358 18.1226Z" fill="black"/>
</svg>
