<svg width="241" height="43" viewBox="0 0 241 43" fill="none" xmlns="http://www.w3.org/2000/svg">
<path d="M9.79044 5.09107C6.96699 5.62919 5.46788 8.91584 4.26801 11.1532C1.92627 15.5198 1.03182 20.5482 1.0103 25.4449C1.00077 27.6116 0.893306 29.8265 1.66358 31.8965C2.30087 33.6091 3.36444 35.2457 4.65127 36.5701C7.21848 39.2122 11.6426 40.8108 15.278 41.3284C20.0523 42.008 25.0067 42.5552 29.7897 41.7009C32.9408 41.1381 36.6392 40.4798 38.7963 37.9417C41.0416 35.2998 41.7496 31.6699 42.0192 28.3405C42.2121 25.9583 42.1218 23.5146 42.0801 21.1269C42.0438 19.0412 41.6864 17.318 40.7474 15.4458C38.0942 10.1555 34.9755 5.62642 29.0493 3.5586C25.6434 2.37021 20.8208 0.02339 17.0811 1.44194C15.2416 2.13971 12.8169 2.87122 11.2712 4.10047C10.7749 4.49522 10.1996 4.78647 9.72076 5.16727C9.47397 5.36354 8.94041 5.74099 8.84971 6.00547" stroke="black" stroke-linecap="round" stroke-linejoin="round"/>
<path d="M14.6641 19.7323C14.5199 19.8075 14.4002 19.8375 14.4002 19.7315C14.4002 19.5631 14.3905 19.4267 14.6596 19.3635C14.6742 19.3601 14.6879 19.3571 14.7009 19.3543C14.6882 19.2571 15.0709 19.1334 15.0807 19.3801C15.0817 19.4063 15.0822 19.4322 15.0817 19.4574C15.0807 19.502 15.0769 19.5444 15.0685 19.5828C15.0391 19.7165 14.9537 19.8022 14.7404 19.7645C14.7089 19.759 14.6835 19.7476 14.6641 19.7323Z" fill="white"/>
<path d="M15.1573 19.3966C15.1385 19.4188 14.4002 19.9949 14.4002 19.7315C14.4002 19.5631 14.3905 19.4267 14.6596 19.3635C15.1055 19.2589 14.8241 19.4862 14.7149 19.3801C14.615 19.2829 15.0701 19.1109 15.0807 19.3801C15.09 19.6144 15.0497 19.8192 14.7404 19.7645C14.5173 19.7251 14.6054 19.3944 14.8893 19.4793C15.576 19.6847 14.5448 20.6393 14.5448 19.8431" stroke="black" stroke-linecap="round" stroke-linejoin="round"/>
<path d="M14.643 20.0663C14.7148 20.3354 14.7594 20.6644 14.5065 20.5005C14.3288 20.3853 14.3775 19.9412 14.3914 19.7563C14.3907 19.716 14.3917 19.6753 14.3917 19.6364C14.3917 19.4606 14.6118 19.331 14.847 19.2852C15.002 19.1704 15.2368 19.147 15.3444 19.3264C15.3611 19.3542 15.3751 19.3831 15.3864 19.4126C15.5693 19.6671 15.524 20.2174 15.2764 20.3268C15.1051 20.4025 14.9846 20.3998 14.8997 20.3486C14.8088 20.2937 14.7589 20.1831 14.7314 20.0532C14.699 20.0613 14.6687 20.0658 14.643 20.0663Z" fill="white"/>
<path d="M14.5448 19.7687C14.5752 19.8228 14.8989 20.7547 14.5065 20.5005C14.3275 20.3845 14.3783 19.9346 14.3917 19.7522C14.413 19.4617 15.1661 19.4137 15.0765 19.8059C15.0441 19.9476 14.7735 20.0664 14.6384 20.0664C14.3678 20.0664 14.3917 19.8291 14.3917 19.6364C14.3917 19.3158 15.1235 19.1488 15.3444 19.3636C15.5747 19.5874 15.5414 20.2097 15.2764 20.3268C14.6913 20.5853 14.6979 19.9296 14.6979 19.5455C14.6979 19.2609 15.1763 19.0462 15.3444 19.3264C15.591 19.7372 15.2367 20.364 14.7745 20.364" stroke="black" stroke-linecap="round" stroke-linejoin="round"/>
<path d="M26.4086 19.4495C26.4056 19.3372 26.4693 19.241 26.6581 19.2478C26.9682 19.2589 27.0341 19.668 26.8253 19.8277C26.7942 19.8515 26.7569 19.8697 26.7134 19.8803C26.5609 19.9174 26.247 19.9913 26.1435 19.8348C26.1018 19.7718 26.0533 19.6752 26.0419 19.5888C26.0298 19.4966 26.06 19.4161 26.186 19.4007C26.2494 19.393 26.3277 19.412 26.4086 19.4495Z" fill="white"/>
<path d="M26.5645 20.0663C26.3112 20.1008 25.9521 20.2164 25.9521 19.8803C25.9521 19.6421 26.0712 19.471 26.3306 19.471C26.6418 19.471 26.7684 19.6943 26.3774 19.6943C25.9633 19.6943 26.9122 19.5465 26.7006 19.7521C26.5278 19.9202 26.1631 19.23 26.6581 19.2478C27.0145 19.2606 27.0484 19.7989 26.7134 19.8803C26.5609 19.9174 26.247 19.9913 26.1435 19.8348C26.0573 19.7046 25.942 19.4304 26.186 19.4007C26.4575 19.3678 27.0023 19.8244 26.8538 20.1242C26.7717 20.2899 26.3097 20.4519 26.1222 20.4384C25.9019 20.4226 25.9521 19.9793 25.9521 19.8431" stroke="black" stroke-linecap="round" stroke-linejoin="round"/>
<path d="M25.952 19.8432C26.1355 19.8469 26.2594 19.8684 26.4114 19.9176" stroke="black" stroke-linecap="round" stroke-linejoin="round"/>
<path d="M15.54 29.9635C15.5748 28.9157 16.0986 28.4933 16.9308 27.913C17.6459 27.4143 18.4257 26.928 19.2148 26.5445C20.4151 25.9612 21.7212 25.241 23.1151 25.3539C23.7953 25.409 24.7826 26.0271 25.1864 26.5569C25.7045 27.2369 26.4469 28.058 26.7175 28.8473" stroke="black" stroke-linecap="round" stroke-linejoin="round"/>
<path d="M28.1318 21.9864C28.323 22.2896 28.5555 22.5864 28.7177 22.9015" stroke="black" stroke-linecap="round" stroke-linejoin="round"/>
<path d="M29.5337 24.0202C29.8021 24.3945 29.9844 24.8197 30.2451 25.1997" stroke="black" stroke-linecap="round" stroke-linejoin="round"/>
<path d="M30.9774 26.2977C31.1295 26.9164 31.4724 27.4776 31.7097 28.067" stroke="black" stroke-linecap="round" stroke-linejoin="round"/>
<path d="M13.071 22.0325C13.0004 22.3632 12.7829 22.5778 12.6258 22.867C12.5238 23.0549 12.3803 23.2272 12.2443 23.3924" stroke="black" stroke-linecap="round" stroke-linejoin="round"/>
<path d="M11.6399 24.3507C11.6129 24.7188 11.4605 25.0485 11.3697 25.4016C11.3374 25.5269 11.3065 25.638 11.2266 25.7416" stroke="black" stroke-linecap="round" stroke-linejoin="round"/>
<path d="M10.5885 27.2722C10.5885 27.473 10.6695 27.8901 10.5108 28.0615C10.392 28.1898 10.2708 28.3916 10.2708 28.5694" stroke="black" stroke-linecap="round" stroke-linejoin="round"/>
<path d="M156.344 5.09107C153.521 5.62919 152.022 8.91584 150.822 11.1532C148.48 15.5198 147.586 20.5482 147.564 25.4449C147.555 27.6116 147.447 29.8265 148.218 31.8965C148.855 33.6091 149.918 35.2457 151.205 36.5701C153.772 39.2122 158.197 40.8108 161.832 41.3284C166.606 42.008 171.561 42.5552 176.344 41.7009C179.495 41.1381 183.193 40.4798 185.35 37.9417C187.596 35.2998 188.304 31.6699 188.573 28.3405C188.766 25.9583 188.676 23.5146 188.634 21.1269C188.598 19.0412 188.24 17.318 187.301 15.4458C184.648 10.1555 181.529 5.62642 175.603 3.5586C172.197 2.37021 167.375 0.02339 163.635 1.44194C161.796 2.13971 159.371 2.87122 157.825 4.10047C157.329 4.49522 156.754 4.78647 156.275 5.16727C156.028 5.36354 155.494 5.74099 155.404 6.00547" stroke="black" stroke-linecap="round" stroke-linejoin="round"/>
<path d="M174.775 9.98199C174.799 10.5882 175.082 10.9217 175.361 11.411C175.437 11.5444 175.64 11.7667 175.64 11.9154C175.64 12.2526 174.323 12.713 173.997 12.9241" stroke="black" stroke-linecap="round" stroke-linejoin="round"/>
<path d="M176.245 9.30965C176.502 9.87835 177.021 10.2762 177.302 10.8227C177.584 11.3698 178.23 10.5306 178.561 10.2997C179.052 9.95665 179.558 9.4133 180.137 9.22559" stroke="black" stroke-linecap="round" stroke-linejoin="round"/>
<path d="M174.948 14.6895C175.63 14.5813 176.293 14.5059 176.894 14.8202C177.729 15.2572 178.093 16.1796 178.494 16.9591" stroke="black" stroke-linecap="round" stroke-linejoin="round"/>
<path d="M181.002 11.3271C180.766 11.4935 179.917 11.8626 179.877 12.1678C179.837 12.4793 179.341 12.8921 179.147 13.1344C178.833 13.5272 179.372 14.3349 179.618 14.6008C179.848 14.8489 180.091 15.2978 180.396 15.4461" stroke="black" stroke-linecap="round" stroke-linejoin="round"/>
<path d="M162.354 21.2681C162.273 21.1594 161.916 20.3358 162.321 20.729C162.466 20.8695 162.176 20.9827 162.354 20.9827" stroke="black" stroke-linecap="round" stroke-linejoin="round"/>
<path d="M171.749 21.2682C172.526 20.7349 173.096 21.1255 172.19 21.1255" stroke="black" stroke-linecap="round" stroke-linejoin="round"/>
<path d="M172.19 21.1255C171.355 19.9973 172.618 20.8357 172.255 21.1889C171.775 21.6558 171.749 20.6403 171.749 20.412" stroke="black" stroke-linecap="round" stroke-linejoin="round"/>
<path d="M158.251 16.1524C159.342 16.2187 160.415 16.536 161.462 16.8255C162.407 17.0867 163.338 17.4086 164.216 17.84C164.675 18.0658 165.346 18.3081 165.718 18.6692" stroke="black" stroke-linecap="round" stroke-linejoin="round"/>
<path d="M169.09 18.9618C169.969 18.1411 170.857 17.3132 171.786 16.5458C172.019 16.3537 172.279 16.1091 172.582 16.0353" stroke="black" stroke-linecap="round" stroke-linejoin="round"/>
<path d="M161.443 31.8386C162.766 29.5642 164.193 27.3446 165.771 25.2312C165.857 25.1171 165.882 25.0183 166.046 25.0621C166.887 25.2871 167.691 25.8443 168.454 26.2327C169.94 26.9888 171.518 27.6275 172.95 28.4764C173.311 28.6898 173.653 28.9266 174.028 29.1137C174.19 29.195 174.352 29.3042 174.509 29.3804" stroke="black" stroke-linecap="round" stroke-linejoin="round"/>
<path d="M58.6418 5.09107C55.8183 5.62919 54.3192 8.91584 53.1193 11.1532C50.7776 15.5198 49.8831 20.5482 49.8616 25.4449C49.8521 27.6116 49.7446 29.8265 50.5149 31.8965C51.1522 33.6091 52.2158 35.2457 53.5026 36.5701C56.0698 39.2122 60.4939 40.8108 64.1294 41.3284C68.9036 42.008 73.858 42.5552 78.641 41.7009C81.7921 41.1381 85.4906 40.4798 87.6476 37.9417C89.8929 35.2998 90.6009 31.6699 90.8705 28.3405C91.0634 25.9583 90.9731 23.5146 90.9315 21.1269C90.8951 19.0412 90.5377 17.318 89.5988 15.4458C86.9455 10.1555 83.8268 5.62642 77.9006 3.5586C74.4947 2.37021 69.6721 0.02339 65.9324 1.44194C64.0929 2.13971 61.6682 2.87122 60.1225 4.10047C59.6262 4.49522 59.0509 4.78647 58.5721 5.16727C58.3253 5.36354 57.7917 5.74099 57.701 6.00547" stroke="black" stroke-linecap="round" stroke-linejoin="round"/>
<path d="M63.8365 20.4156C63.674 20.4197 63.5204 20.3244 63.5409 20.1155C63.5767 19.7497 64.5943 19.2637 64.5509 19.8113C64.5441 19.8981 64.5044 19.9524 64.4481 19.9835C64.7815 20.3325 64.5765 21.1409 64.0578 20.9728C63.9322 20.9321 63.8303 20.6322 63.8365 20.4156Z" fill="white"/>
<path d="M63.9535 20.0786C64.4999 20.1052 64.5276 20.5764 63.9961 20.5764C63.8093 20.5764 63.8761 20.4105 64.0388 20.4105C64.2965 20.4105 64.1289 20.5446 64.0009 20.4427C63.6908 20.1961 63.9142 19.2268 64.1621 19.9496C64.3435 20.4785 63.4945 20.5894 63.5409 20.1155C63.5767 19.7497 64.5943 19.2637 64.5509 19.8113C64.5155 20.2592 63.6067 19.8421 64.0388 19.8297C64.8714 19.8059 64.7212 21.1878 64.0578 20.9728C63.8279 20.8983 63.6774 19.955 64.1242 20.2446" stroke="black" stroke-linecap="round" stroke-linejoin="round"/>
<path d="M75.5571 20.1283C75.5438 20.1511 75.5154 20.1751 75.467 20.1986C75.349 20.256 75.2346 20.1896 75.1529 20.0721C74.9715 19.8114 74.9513 19.2991 75.4101 19.3321C75.7059 19.3534 75.8801 19.9757 75.5571 20.1283Z" fill="white"/>
<path d="M75.5619 20.2447C75.7716 20.5336 75.9186 20.7795 75.4765 20.89C75.1573 20.9698 75.077 20.7307 75.0545 20.4567C75.0346 20.2156 75.0888 20.0064 75.3722 19.9958C75.5192 19.9903 75.6719 20.099 75.467 20.1986C75.0869 20.3834 74.7447 19.2842 75.4101 19.3321C75.7473 19.3564 75.9265 20.1618 75.3912 20.1618" stroke="black" stroke-linecap="round" stroke-linejoin="round"/>
<path d="M74.9642 19.6638C75.1457 19.5384 75.7339 19.1088 75.8605 19.5025C75.9252 19.704 75.9393 19.9787 75.7514 20.1248C75.4454 20.3627 75.3796 20.145 75.2203 19.9127" stroke="black" stroke-linecap="round" stroke-linejoin="round"/>
<path d="M63.7828 30.0345C67.2634 30.0345 70.7222 30.0507 74.1915 29.8732C74.9292 29.8355 75.6766 29.8686 76.4155 29.8686C76.8173 29.8686 77.2349 29.6584 77.6105 29.5367" stroke="black" stroke-linecap="round" stroke-linejoin="round"/>
<path d="M107.493 5.09107C104.67 5.62919 103.171 8.91584 101.971 11.1532C99.6289 15.5198 98.7345 20.5482 98.7129 25.4449C98.7034 27.6116 98.5959 29.8265 99.3662 31.8965C100.004 33.6091 101.067 35.2457 102.354 36.5701C104.921 39.2122 109.345 40.8108 112.981 41.3284C117.755 42.008 122.709 42.5552 127.492 41.7009C130.643 41.1381 134.342 40.4798 136.499 37.9417C138.744 35.2998 139.452 31.6699 139.722 28.3405C139.915 25.9583 139.824 23.5146 139.783 21.1269C139.746 19.0412 139.389 17.318 138.45 15.4458C135.797 10.1555 132.678 5.62642 126.752 3.5586C123.346 2.37021 118.523 0.02339 114.784 1.44194C112.944 2.13971 110.52 2.87122 108.974 4.10047C108.478 4.49522 107.902 4.78647 107.423 5.16727C107.177 5.36354 106.643 5.74099 106.552 6.00547" stroke="black" stroke-linecap="round" stroke-linejoin="round"/>
<path d="M112.195 20.3125C112.279 20.5917 112.348 21.065 112.319 21.1779C112.2 21.6264 111.39 21.7018 111.256 21.2456C111.206 21.0758 111.199 21.0005 111.211 20.9751C110.851 20.5346 111.19 19.9466 111.718 19.8825C111.763 19.877 111.809 19.8795 111.855 19.8884C112.082 19.9327 112.288 20.1367 112.195 20.3125Z" fill="white"/>
<path d="M111.883 20.7884C110.717 20.2502 111.477 19.6395 112.101 20.1111C112.215 20.1971 112.359 21.0237 112.319 21.1779C112.2 21.6264 111.39 21.7018 111.256 21.2456C111.082 20.6555 111.432 21.2069 111.256 21.0255C110.825 20.5808 111.169 19.9491 111.718 19.8825C112.051 19.842 112.458 20.2345 112.04 20.4498C111.104 20.9315 111.925 19.1937 112.353 20.0264" stroke="black" stroke-linecap="round" stroke-linejoin="round"/>
<path d="M123.623 20.5839C123.674 20.598 123.715 20.6113 123.735 20.6184C124.08 20.7405 123.488 21.0537 123.623 20.5839Z" fill="white"/>
<path d="M124.554 20.8446C125.574 21.0677 123.91 21.7725 123.408 21.4727C123.147 21.3172 123.113 20.8566 123.162 20.5933C123.189 20.4476 123.649 20.5879 123.735 20.6184C124.09 20.7438 123.455 21.0712 123.636 20.543C123.789 20.0972 124.917 20.3576 123.933 20.9953" stroke="black" stroke-linecap="round" stroke-linejoin="round"/>
<path d="M113.541 26.3472C113.628 27.2972 114.628 27.5902 115.364 28.0056C116.2 28.4773 117.291 28.8921 118.272 28.9101C120.3 28.9473 120.773 26.8939 121.296 25.3672" stroke="black" stroke-linecap="round" stroke-linejoin="round"/>
<path d="M205.196 5.09107C202.372 5.62919 200.873 8.91584 199.673 11.1532C197.331 15.5198 196.437 20.5482 196.415 25.4449C196.406 27.6116 196.298 29.8265 197.069 31.8965C197.706 33.6091 198.77 35.2457 200.056 36.5701C202.624 39.2122 207.048 40.8108 210.683 41.3284C215.457 42.008 220.412 42.5552 225.195 41.7009C228.346 41.1381 232.044 40.4798 234.201 37.9417C236.447 35.2998 237.155 31.6699 237.424 28.3405C237.617 25.9583 237.527 23.5146 237.485 21.1269C237.449 19.0412 237.092 17.318 236.153 15.4458C233.499 10.1555 230.381 5.62642 224.454 3.5586C221.049 2.37021 216.226 0.02339 212.486 1.44194C210.647 2.13971 208.222 2.87122 206.676 4.10047C206.18 4.49522 205.605 4.78647 205.126 5.16727C204.879 5.36354 204.346 5.74099 204.255 6.00547" stroke="black" stroke-linecap="round" stroke-linejoin="round"/>
<path d="M220.343 19.2546C222.483 19.2546 224.624 19.2546 226.765 19.2546" stroke="black" stroke-linecap="round" stroke-linejoin="round"/>
<path d="M205.84 19.5091C207.25 19.5091 208.784 19.6906 210.182 19.5042C210.793 19.4229 211.365 19.3335 211.987 19.3335" stroke="black" stroke-linecap="round" stroke-linejoin="round"/>
<path d="M218.92 32.1353C218.808 32.4187 218.657 32.739 218.441 32.9523C218.371 33.0969 218.298 33.2255 218.229 33.3243C217.738 34.0238 216.949 33.708 216.278 33.708C214.532 33.708 214.549 31.8301 214.831 30.3825C214.886 30.0999 214.955 29.6625 215.166 29.4305C215.181 29.341 215.203 29.2538 215.232 29.1698C215.631 27.9959 217.413 28.4566 218.194 28.8903C219.242 29.4716 219.355 31.0395 218.92 32.1353Z" fill="white"/>
<path d="M215.659 29.274C215.659 30.4902 215.383 31.9803 216.393 32.7985C216.79 33.1201 217.479 33.2294 217.955 33.1917C218.453 33.1522 218.738 32.5953 218.92 32.1353C219.355 31.0395 219.242 29.4716 218.194 28.8903C217.413 28.4566 215.631 27.9959 215.232 29.1698C214.784 30.4852 215.969 32.5939 217.289 31.7279C217.855 31.3573 217.84 31.1459 217.806 30.4204C217.766 29.5632 217.335 29.0468 216.551 29.1982C216.019 29.301 216.073 30.3113 216.154 30.7046C216.33 31.5622 217.504 32.238 218.148 31.5242C218.708 30.9019 218.63 29.2887 217.716 29.1224C216.909 28.9755 216.531 30.2153 216.444 30.9225C216.362 31.5969 217.224 31.8177 217.695 31.6047C218.559 31.214 218.132 29.4201 217.435 29.1035C215.563 28.2538 214.354 31.0658 216.043 32.2111C217.107 32.9325 217.59 30.0178 216.922 29.4114C216.61 29.1277 215.864 29.2585 215.488 29.274C215.012 29.2936 214.907 29.9884 214.831 30.3825C214.549 31.8301 214.532 33.708 216.278 33.708C216.949 33.708 217.738 34.0238 218.229 33.3243C218.492 32.9479 218.809 32.1387 218.809 31.6615" stroke="black" stroke-width="2" stroke-linecap="round" stroke-linejoin="round"/>
<path d="M233.429 5.9672C234.144 5.72319 234.879 5.47102 235.608 5.25684C235.747 5.21601 235.995 5.07654 235.995 5.28106C235.995 6.14626 235.812 7.00998 235.812 7.88031C235.812 8.10641 235.66 8.93348 235.995 8.74403C236.763 8.30884 237.645 7.96473 238.469 7.63814" stroke="black" stroke-linecap="round" stroke-linejoin="round"/>
<path d="M237.543 4.57482C237.66 4.47515 238.285 3.84732 238.386 4.18344C238.489 4.52474 238.55 4.88286 238.654 5.22168C238.688 5.33436 238.765 6.09763 238.882 6.13761C239.071 6.20187 239.464 5.58441 239.6 5.45542" stroke="black" stroke-linecap="round" stroke-linejoin="round"/>
</svg>
