<svg width="22" height="20" viewBox="0 0 22 20" fill="none" xmlns="http://www.w3.org/2000/svg">
<path d="M19.8039 0.0980365C18.5919 0.0937388 17.6077 1.07792 17.6034 2.28987C17.6034 2.86147 17.8226 3.41157 18.2223 3.81986L14.2039 11.8609C14.118 11.848 14.0277 11.8351 13.9375 11.8351C13.6538 11.8351 13.3702 11.891 13.108 11.9984L9.98789 8.48717C10.1684 8.16485 10.2672 7.80384 10.2715 7.42994C10.2715 6.21368 9.28736 5.22951 8.07111 5.22951C6.85485 5.22951 5.87068 6.21368 5.87068 7.42994C5.87498 7.95426 6.06407 8.46139 6.41219 8.85678L2.59152 15.5397C2.46259 15.5139 2.32936 15.501 2.20043 15.501C0.984177 15.501 0 16.4852 0 17.7015C0 18.9177 0.984177 19.9019 2.20043 19.9019C3.41668 19.9019 4.40086 18.9177 4.40086 17.7015C4.39656 17.1772 4.20746 16.67 3.85935 16.2746L7.67572 9.59169C8.084 9.67334 8.50947 9.63037 8.89197 9.46705L12.0121 12.9783C11.8316 13.3006 11.7371 13.6659 11.7328 14.0355C11.7285 15.2518 12.7126 16.2403 13.9246 16.2445C15.1408 16.2488 16.1293 15.2647 16.1336 14.0527C16.1336 13.4811 15.9144 12.9267 15.5147 12.5141L19.5331 4.47311C19.6191 4.486 19.7093 4.4989 19.7996 4.4989C21.0158 4.4989 22 3.51472 22 2.29847C22 1.08221 21.0201 0.0980365 19.8039 0.0980365Z" fill="black"/>
</svg>
