<svg width="22" height="20" viewBox="0 0 22 20" fill="none" xmlns="http://www.w3.org/2000/svg">
<path d="M4.74083 11.4369C4.74083 10.1297 3.67752 9.06641 2.37033 9.06641H0.644531C0.288528 9.06641 0 9.35493 0 9.71094V13.1629C0 13.5187 0.288528 13.8074 0.644531 13.8074H2.3705C3.67752 13.8074 4.74083 12.7439 4.74083 11.4369Z" fill="black"/>
<path d="M21.3554 9.06641H19.6295C18.3224 9.06641 17.259 10.1299 17.259 11.4369C17.259 12.7439 18.3224 13.8074 19.6295 13.8074H21.3554C21.7114 13.8074 22 13.5187 22 13.1629V9.71111C22 9.3551 21.7114 9.06641 21.3554 9.06641Z" fill="black"/>
<path d="M15.8326 7.6857C17.9515 7.6857 19.6753 5.96175 19.6753 3.84285C19.6753 1.72379 17.9515 0 15.8326 0C13.7136 0 11.9896 1.72395 11.9896 3.84285C11.9896 5.96175 13.7136 7.6857 15.8326 7.6857Z" fill="black"/>
<path d="M10.7005 3.84285C10.7005 1.72395 8.97676 0 6.85786 0C4.7388 0 3.01501 1.72395 3.01501 3.84285C3.01501 5.96175 4.7388 7.6857 6.85786 7.6857C8.97676 7.6857 10.7005 5.96175 10.7005 3.84285Z" fill="black"/>
<path d="M9.06642 13.1628C9.06642 10.913 10.1704 8.91649 11.8648 7.68567C10.0339 7.68567 7.92255 7.68567 6.8579 7.68567C6.4272 7.68567 6.16754 7.68567 6.16737 7.68567C5.38521 7.68567 4.64165 7.84999 3.96858 8.1454C5.18782 8.73975 6.02991 9.99171 6.02991 11.4369C6.02991 13.4547 4.38837 15.0964 2.37035 15.0964H0.690369V18.6857C0.690369 19.0417 0.978897 19.3302 1.3349 19.3302H3.45161V16.523C3.45161 16.1671 3.74048 15.8784 4.09615 15.8784C4.45248 15.8784 4.74068 16.1671 4.74068 16.523V19.3302H9.1772C9.1057 19.1284 9.06642 18.9116 9.06642 18.6857V13.1628Z" fill="black"/>
<path d="M15.9701 11.4369C15.9701 9.99171 16.8122 8.73975 18.0314 8.1454C17.3584 7.84999 16.6148 7.68567 15.8326 7.68567C12.8077 7.68567 10.3555 10.1379 10.3555 13.1628V18.6857C10.3555 19.0417 10.644 19.3302 11 19.3302H17.2593V16.523C17.2593 16.1671 17.5475 15.8784 17.9039 15.8784C18.2595 15.8784 18.5484 16.1671 18.5484 16.523V19.3302H20.6651C21.0211 19.3302 21.3096 19.0417 21.3096 18.6857V15.0964H19.6295C17.6116 15.0964 15.9701 13.4547 15.9701 11.4369Z" fill="black"/>
</svg>
