<?xml version="1.0" standalone="no"?>
<!DOCTYPE svg PUBLIC "-//W3C//DTD SVG 20010904//EN"
 "http://www.w3.org/TR/2001/REC-SVG-20010904/DTD/svg10.dtd">
<svg version="1.0" xmlns="http://www.w3.org/2000/svg"
 width="1501.000000pt" height="262.000000pt" viewBox="0 0 1501.000000 262.000000"
 preserveAspectRatio="xMidYMid meet">

<g transform="translate(0.000000,262.000000) scale(0.100000,-0.100000)"
fill="#000000" stroke="none">
<path d="M1095 2606 c-76 -22 -253 -90 -315 -121 -30 -15 -86 -49 -125 -75
-38 -26 -92 -55 -118 -64 -61 -23 -154 -109 -205 -189 -155 -246 -243 -479
-289 -762 -25 -159 -26 -582 0 -675 40 -151 163 -337 282 -429 245 -188 637
-284 1175 -285 217 -1 246 1 385 28 188 35 345 86 423 137 161 105 261 292
309 574 15 89 18 164 18 400 0 357 -7 394 -106 594 -157 316 -344 531 -565
648 -94 49 -432 175 -547 204 -109 27 -257 33 -322 15z m315 -56 c120 -30 431
-145 520 -191 222 -115 401 -317 561 -634 88 -175 99 -225 106 -490 10 -356
-25 -607 -107 -782 -97 -207 -221 -295 -500 -356 -203 -45 -266 -51 -490 -51
-283 0 -563 33 -765 90 -116 32 -314 129 -390 191 -111 90 -207 231 -251 368
-23 69 -27 103 -31 250 -13 398 50 713 199 1003 84 164 128 233 191 294 42 42
50 46 67 36 17 -11 24 -8 52 18 49 45 155 117 223 151 70 35 274 113 325 124
57 13 199 2 290 -21z"/>
<path d="M882 1464 c-16 -11 -22 -25 -22 -54 0 -52 23 -66 71 -42 40 20 48 51
25 88 -19 28 -42 31 -74 8z"/>
<path d="M1622 1469 c-32 -12 -48 -52 -34 -84 13 -27 28 -31 66 -14 23 11 42
60 30 80 -11 18 -39 26 -62 18z"/>
<path d="M754 1245 c-26 -44 -29 -56 -19 -65 10 -8 19 -3 38 22 34 46 49 77
42 88 -13 21 -31 7 -61 -45z"/>
<path d="M1725 1291 c-8 -13 34 -81 50 -81 25 0 26 19 3 54 -23 35 -41 45 -53
27z"/>
<path d="M1814 1165 c-6 -15 43 -105 57 -105 21 0 20 31 -2 69 -24 44 -47 59
-55 36z"/>
<path d="M696 1149 c-38 -103 -40 -119 -11 -119 8 0 21 21 30 52 13 46 13 54
0 67 -12 12 -15 13 -19 0z"/>
<path d="M1262 1056 c-160 -67 -289 -155 -316 -214 -10 -22 -16 -48 -14 -58 6
-32 29 -21 43 21 16 46 52 79 147 136 147 87 246 119 323 105 47 -9 121 -81
165 -160 32 -57 52 -67 58 -30 4 29 -98 165 -150 199 -34 23 -56 30 -108 32
-56 3 -77 -1 -148 -31z"/>
<path d="M1900 1013 c0 -24 45 -118 60 -128 27 -16 27 20 1 79 -27 60 -61 87
-61 49z"/>
<path d="M626 958 c-2 -7 -9 -30 -16 -51 -9 -30 -9 -42 0 -50 8 -9 16 -6 30
13 24 31 27 100 5 100 -9 0 -17 -6 -19 -12z"/>
<path d="M4155 2606 c-66 -19 -270 -98 -326 -126 -24 -13 -71 -42 -104 -66
-34 -23 -86 -52 -117 -64 -108 -40 -198 -146 -310 -366 -157 -306 -211 -551
-212 -959 -1 -257 6 -300 70 -434 144 -305 425 -478 890 -546 440 -65 750 -57
1079 26 347 88 505 294 560 727 23 181 17 643 -10 742 -22 83 -85 217 -164
349 -147 247 -312 411 -516 513 -87 44 -379 151 -500 184 -114 31 -269 40
-340 20z m246 -41 c131 -23 444 -132 587 -204 210 -106 382 -292 540 -585 118
-219 132 -286 132 -627 0 -352 -31 -542 -116 -717 -103 -212 -246 -295 -633
-364 -237 -42 -679 -25 -996 38 -179 36 -386 126 -507 221 -117 92 -238 284
-270 428 -16 77 -16 444 1 575 30 227 86 420 173 595 79 158 124 230 185 295
48 52 60 60 81 55 18 -4 32 0 51 18 36 34 177 130 231 157 56 28 237 97 305
115 67 18 135 18 236 0z"/>
<path d="M4672 1458 c-18 -18 -15 -94 4 -112 26 -26 66 -14 69 21 1 10 5 28 9
40 16 48 -46 87 -82 51z"/>
<path d="M3978 1445 c-38 -21 -44 -49 -18 -85 41 -57 99 -27 85 43 -7 32 -22
57 -34 57 -3 -1 -18 -7 -33 -15z"/>
<path d="M4810 819 c-14 -5 -210 -12 -435 -17 -392 -7 -410 -8 -413 -26 -4
-19 6 -19 406 -13 431 6 492 12 492 49 0 20 -12 21 -50 7z"/>
<path d="M7235 2610 c-44 -9 -219 -74 -305 -112 -30 -14 -92 -50 -137 -82 -45
-31 -87 -56 -93 -56 -18 0 -106 -48 -139 -76 -46 -38 -110 -132 -184 -269
-167 -309 -227 -572 -227 -991 0 -237 10 -310 60 -420 94 -209 271 -368 517
-464 168 -66 363 -103 688 -131 434 -37 907 55 1087 211 94 81 177 238 218
412 34 148 43 254 42 523 -1 353 -18 430 -137 647 -88 158 -170 274 -264 371
-177 184 -272 235 -691 378 -184 63 -323 82 -435 59z m303 -60 c152 -37 485
-167 580 -227 203 -127 355 -310 500 -600 96 -190 97 -198 97 -588 -1 -381
-10 -452 -77 -631 -98 -259 -244 -359 -633 -429 -256 -47 -522 -44 -890 10
-316 47 -528 134 -686 282 -113 107 -195 248 -225 383 -19 91 -19 443 1 597
38 294 133 553 291 794 48 73 135 160 142 141 6 -20 28 -14 60 16 71 67 220
154 346 203 71 28 153 57 180 65 66 18 203 12 314 -16z"/>
<path d="M6963 1430 c-63 -26 -46 -140 21 -140 36 0 56 30 55 81 -3 66 -22 81
-76 59z"/>
<path d="M7728 1399 c-10 -5 -18 -7 -18 -3 0 3 -7 1 -15 -6 -21 -18 -19 -64 5
-85 25 -22 85 -15 114 15 l20 20 -34 35 c-36 37 -45 40 -72 24z"/>
<path d="M7559 1063 c-36 -100 -55 -136 -87 -164 -33 -29 -39 -31 -94 -26 -41
4 -87 19 -150 48 -75 36 -93 49 -105 76 -17 41 -43 44 -43 5 0 -39 39 -73 141
-122 184 -88 291 -59 349 96 32 87 36 114 16 114 -9 0 -21 -12 -27 -27z"/>
<path d="M10285 2606 c-142 -37 -339 -125 -446 -199 -35 -24 -86 -52 -114 -62
-106 -39 -206 -166 -326 -410 -78 -160 -127 -314 -160 -500 -20 -113 -23 -164
-24 -395 0 -227 3 -274 18 -329 46 -161 164 -332 297 -431 246 -183 630 -273
1160 -274 218 -1 246 1 385 28 279 53 406 106 515 216 109 109 180 275 216
500 21 130 29 476 15 631 -13 152 -36 230 -108 371 -158 310 -359 534 -583
648 -74 38 -404 158 -508 186 -117 31 -264 40 -337 20z m332 -60 c102 -28 418
-143 485 -177 229 -116 418 -326 577 -642 96 -191 103 -227 104 -572 1 -232
-3 -312 -17 -399 -38 -240 -123 -421 -241 -517 -175 -141 -625 -223 -1035
-190 -447 37 -693 102 -895 236 -169 112 -295 296 -331 482 -17 89 -19 348 -4
508 14 150 52 330 95 456 41 118 155 344 221 436 47 65 117 130 122 113 6 -17
38 -11 58 11 28 31 163 123 231 158 74 37 262 109 318 121 64 14 211 3 312
-24z"/>
<path d="M11014 2085 c-10 -24 73 -135 99 -135 7 0 37 21 67 46 30 25 67 52
83 60 30 16 36 44 9 44 -20 0 -47 -17 -113 -72 l-47 -38 -37 55 c-40 58 -52
65 -61 40z"/>
<path d="M10927 2053 c-13 -13 -7 -59 13 -91 11 -18 20 -37 20 -42 0 -6 -20
-20 -45 -32 -29 -14 -45 -29 -45 -40 0 -24 11 -23 68 6 77 39 81 49 49 107
-15 27 -27 55 -27 63 0 17 -24 38 -33 29z"/>
<path d="M11285 1950 c-16 -11 -39 -32 -50 -48 -11 -16 -28 -41 -38 -55 -18
-25 -18 -27 1 -69 21 -45 74 -108 91 -108 24 0 20 23 -12 63 -61 76 -62 78
-16 136 22 28 44 51 49 51 14 0 41 31 35 41 -9 14 -27 11 -60 -11z"/>
<path d="M10953 1763 c-15 -3 -23 -12 -23 -25 0 -18 4 -20 43 -14 73 11 126
-23 163 -105 16 -38 36 -49 49 -29 9 14 -39 101 -72 133 -42 39 -95 53 -160
40z"/>
<path d="M10773 1667 c-36 -20 -213 -181 -213 -194 0 -32 28 -18 103 49 45 41
99 87 120 103 49 36 41 71 -10 42z"/>
<path d="M9885 1660 c-11 -18 4 -25 95 -44 122 -26 223 -60 315 -106 51 -25
83 -36 89 -30 17 17 -22 47 -112 86 -158 67 -371 119 -387 94z"/>
<path d="M10730 1355 c0 -42 2 -45 26 -45 31 0 64 17 64 33 0 13 -60 57 -78
57 -8 0 -12 -17 -12 -45z"/>
<path d="M10124 1377 c-9 -24 14 -69 34 -65 21 4 28 44 12 64 -15 18 -39 18
-46 1z"/>
<path d="M10343 1073 c-85 -110 -263 -388 -263 -411 0 -28 37 -9 59 31 37 66
227 351 242 364 11 9 57 -10 219 -91 113 -56 229 -117 259 -135 50 -30 81 -35
81 -12 0 6 -30 28 -67 50 -99 57 -469 241 -487 241 -8 0 -27 -17 -43 -37z"/>
<path d="M13370 2613 c-47 -10 -275 -95 -335 -126 -33 -16 -87 -49 -120 -73
-34 -23 -86 -52 -118 -64 -112 -42 -203 -153 -324 -395 -96 -192 -144 -347
-179 -575 -25 -162 -26 -556 -2 -651 35 -137 104 -256 212 -367 229 -237 641
-355 1246 -356 218 -1 246 1 384 28 365 70 505 147 614 339 110 193 148 423
139 844 -5 294 -15 345 -104 523 -158 314 -363 544 -586 657 -89 44 -391 156
-510 189 -91 24 -261 39 -317 27z m221 -48 c46 -8 136 -32 199 -54 403 -138
507 -195 678 -376 102 -108 184 -230 273 -410 103 -209 104 -213 104 -580 -1
-348 -10 -432 -69 -607 -99 -292 -244 -393 -675 -470 -237 -42 -678 -25 -996
38 -188 38 -399 131 -518 229 -77 63 -146 153 -198 258 -67 133 -74 172 -73
427 0 397 52 639 196 925 80 159 119 219 185 287 48 48 58 55 74 45 15 -10 24
-6 51 19 44 41 158 118 221 151 66 33 247 102 312 119 68 17 137 17 236 -1z"/>
<path d="M13782 1468 c-8 -8 -9 -15 -1 -25 9 -10 58 -13 213 -13 206 0 240 6
215 37 -15 18 -409 19 -427 1z"/>
<path d="M13197 1464 c-4 -4 -80 -8 -169 -8 -138 -1 -163 -3 -163 -16 0 -12
22 -17 105 -23 130 -10 315 9 315 33 0 16 -74 28 -88 14z"/>
<path d="M13482 900 c-45 -28 -73 -95 -79 -195 -9 -136 28 -186 149 -199 83
-8 122 11 165 83 36 60 48 119 38 181 -19 111 -179 187 -273 130z"/>
<path d="M14882 2408 c-18 -11 -32 -26 -32 -34 0 -16 31 -19 47 -3 7 7 15 -6
25 -48 10 -41 19 -59 32 -61 24 -5 56 26 56 55 0 24 -14 31 -25 13 -9 -14 -25
-12 -25 3 0 28 -21 85 -34 90 -7 3 -27 -4 -44 -15z"/>
<path d="M14685 2334 c-90 -29 -105 -38 -87 -56 11 -11 64 0 140 30 11 4 13
-13 7 -94 -10 -134 -7 -136 111 -84 49 21 90 44 92 50 8 23 -30 20 -97 -8
l-70 -30 2 106 c1 63 -2 106 -8 108 -5 2 -46 -8 -90 -22z"/>
</g>
</svg>
