<?xml version="1.0" standalone="no"?>
<!DOCTYPE svg PUBLIC "-//W3C//DTD SVG 20010904//EN"
 "http://www.w3.org/TR/2001/REC-SVG-20010904/DTD/svg10.dtd">
<svg version="1.0" xmlns="http://www.w3.org/2000/svg"
 width="600.000000pt" height="600.000000pt" viewBox="0 0 600.000000 600.000000"
 preserveAspectRatio="xMidYMid meet">

<g transform="translate(0.000000,600.000000) scale(0.100000,-0.100000)"
fill="#000000" stroke="none">
<path d="M1910 5269 c-342 -60 -571 -268 -662 -600 -21 -77 -23 -104 -23 -324
1 -276 11 -329 90 -490 76 -156 175 -255 330 -330 134 -64 248 -88 425 -88
186 0 292 22 440 94 91 45 116 63 196 143 81 81 98 104 142 196 79 165 96 252
95 500 0 188 -2 213 -26 305 -15 55 -48 143 -73 195 -39 79 -62 109 -133 180
-70 70 -103 94 -181 133 -139 69 -223 88 -410 92 -85 2 -180 0 -210 -6z m293
-426 c57 -23 114 -94 140 -177 20 -65 22 -91 22 -311 0 -225 -1 -244 -23 -307
-48 -138 -142 -204 -280 -196 -131 7 -202 66 -245 202 -20 65 -22 91 -22 311
0 224 1 244 22 299 44 117 104 177 194 195 54 11 141 4 192 -16z"/>
<path d="M3142 4358 l3 -893 237 -3 238 -2 2 499 3 499 215 -376 c118 -206
247 -431 285 -499 l70 -123 255 2 255 3 3 893 2 892 -240 0 -240 0 0 -442 0
-443 -47 80 c-26 44 -140 242 -254 440 l-208 360 -290 3 -291 2 2 -892z"/>
<path d="M3685 2969 c-418 -83 -652 -352 -696 -797 -20 -200 9 -437 72 -587
103 -248 287 -396 574 -461 118 -27 338 -25 465 4 118 27 272 102 358 173 119
99 215 260 263 444 22 82 24 110 23 310 -1 207 -2 226 -28 320 -84 308 -266
492 -571 577 -82 23 -376 34 -460 17z m444 -65 c284 -71 470 -259 544 -552 19
-76 22 -114 22 -297 0 -222 -8 -282 -56 -412 -56 -151 -177 -297 -310 -376
-134 -79 -346 -125 -527 -114 -240 14 -407 82 -549 225 -93 93 -163 229 -195
378 -31 142 -31 416 0 558 40 186 147 362 280 459 203 150 512 201 791 131z"/>
<path d="M3770 2571 c-103 -32 -178 -121 -210 -252 -17 -68 -24 -371 -11 -469
23 -175 80 -275 183 -321 78 -34 203 -33 273 3 81 42 129 108 163 223 23 81
28 418 8 528 -30 158 -91 246 -194 281 -47 17 -168 20 -212 7z m216 -60 c55
-25 100 -83 126 -161 18 -55 22 -96 26 -261 6 -281 -13 -380 -93 -467 -61 -68
-164 -89 -272 -57 -71 21 -126 84 -156 179 -20 65 -22 91 -22 301 0 214 2 235
23 297 49 140 112 188 247 188 56 0 92 -6 121 -19z"/>
<path d="M1277 2953 c-4 -3 -7 -415 -7 -915 l0 -908 398 0 c219 0 436 5 482
11 235 29 394 102 526 242 146 153 214 368 214 672 0 575 -250 855 -799 895
-153 11 -804 14 -814 3z m839 -52 c392 -33 624 -214 700 -548 25 -111 30 -396
9 -528 -52 -334 -222 -526 -543 -613 -97 -26 -99 -26 -529 -30 l-433 -3 0 865
0 866 343 0 c188 0 392 -4 453 -9z"/>
<path d="M1800 2041 l0 -521 110 0 c263 0 359 68 405 288 17 78 20 356 5 447
-23 141 -82 234 -178 278 -40 18 -70 22 -194 25 l-148 4 0 -521z m263 465
c112 -26 172 -90 201 -216 24 -101 22 -404 -4 -503 -42 -166 -116 -216 -317
-217 l-93 0 0 475 0 475 78 0 c42 0 103 -6 135 -14z"/>
</g>
</svg>
