<svg width="17" height="20" viewBox="0 0 17 20" fill="none" xmlns="http://www.w3.org/2000/svg">
<path d="M15.8826 0.183716V18.9309C16.4941 18.8258 16.9567 18.3566 16.9567 17.7949V1.31979C16.9567 0.758093 16.494 0.288874 15.8826 0.183716Z" fill="#040303"/>
<path d="M13.5617 1.04186V18.0718C13.5617 18.4545 13.4341 18.8117 13.2148 19.1137H13.8333C14.2866 19.1137 14.6542 18.7945 14.6542 18.4005V0.713193C14.6542 0.319335 14.2867 0 13.8333 0H13.2148C13.4341 0.302023 13.5617 0.659134 13.5617 1.04186Z" fill="#040303"/>
<path d="M9.79463 3.53479H2.7124V6.15311H9.79463V3.53479Z" fill="#040303"/>
<path d="M11.3076 0H0V19.1137H11.3076C11.9689 19.1137 12.5069 18.6463 12.5069 18.0718V1.04186C12.5069 0.467418 11.9689 0 11.3076 0ZM10.8493 6.61123C10.8493 6.86428 10.6132 7.06944 10.3219 7.06944H2.18496C1.8937 7.06944 1.65756 6.86428 1.65756 6.61123V3.07654C1.65756 2.82349 1.8937 2.61832 2.18496 2.61832H10.3219C10.6132 2.61832 10.8493 2.82343 10.8493 3.07654V6.61123Z" fill="#040303"/>
</svg>
