<svg width="66" height="66" viewBox="0 0 66 66" fill="none" xmlns="http://www.w3.org/2000/svg">
<path d="M14.4985 6.92987C10.0729 7.77336 7.72302 12.9251 5.84226 16.4321C2.17163 23.2766 0.76961 31.1585 0.735864 38.834C0.720932 42.2303 0.552486 45.7021 1.75987 48.9468C2.75882 51.6312 4.42593 54.1966 6.44301 56.2725C10.4671 60.414 17.4017 62.9197 23.1002 63.731C30.5838 64.7964 38.3497 65.654 45.8469 64.3149C50.7861 63.4327 56.5834 62.4008 59.9645 58.4225C63.484 54.2814 64.5938 48.5915 65.0163 43.3728C65.3187 39.6388 65.1772 35.8084 65.1119 32.0657C65.0549 28.7964 64.4947 26.0952 63.0229 23.1606C58.864 14.8683 53.9756 7.76902 44.6863 4.52776C39.3477 2.66498 31.7884 -1.0136 25.9265 1.20994C23.0431 2.30368 19.2424 3.45031 16.8196 5.37713C16.0416 5.99588 15.1399 6.45242 14.3893 7.04931C14.0025 7.35696 13.1661 7.9486 13.024 8.36317" stroke="black" stroke-linecap="round" stroke-linejoin="round"/>
<path d="M43.388 14.5963C43.4256 15.5465 43.8684 16.0693 44.3068 16.8363C44.4262 17.0453 44.7435 17.3938 44.7435 17.6268C44.7435 18.1554 42.6787 18.8771 42.168 19.208" stroke="black" stroke-linecap="round" stroke-linejoin="round"/>
<path d="M45.6924 13.5424C46.095 14.4338 46.9085 15.0575 47.3492 15.9141C47.7903 16.7717 48.8041 15.4563 49.3223 15.0943C50.0919 14.5566 50.8843 13.7049 51.7924 13.4106" stroke="black" stroke-linecap="round" stroke-linejoin="round"/>
<path d="M43.6592 21.9752C44.7274 21.8057 45.7678 21.6874 46.7092 22.1802C48.0178 22.8651 48.5885 24.3109 49.217 25.5328" stroke="black" stroke-linecap="round" stroke-linejoin="round"/>
<path d="M53.1484 16.7048C52.7795 16.9656 51.4477 17.5441 51.3861 18.0225C51.3233 18.5108 50.5454 19.1578 50.2414 19.5377C49.7488 20.1533 50.5935 21.4194 50.9795 21.8362C51.3395 22.2251 51.7213 22.9288 52.1995 23.1612" stroke="black" stroke-linecap="round" stroke-linejoin="round"/>
<path d="M23.918 32.2869C23.792 32.1165 23.2326 30.8255 23.8669 31.4419C24.0933 31.662 23.6401 31.8396 23.918 31.8396" stroke="black" stroke-linecap="round" stroke-linejoin="round"/>
<path d="M38.645 32.287C39.8632 31.4512 40.7556 32.0634 39.3353 32.0634" stroke="black" stroke-linecap="round" stroke-linejoin="round"/>
<path d="M39.3353 32.0634C38.0276 30.2949 40.0073 31.6091 39.4376 32.1628C38.6848 32.8946 38.645 31.3028 38.645 30.9451" stroke="black" stroke-linecap="round" stroke-linejoin="round"/>
<path d="M17.4873 24.2684C19.1967 24.3723 20.88 24.8698 22.5213 25.3235C24.0025 25.733 25.4611 26.2374 26.8368 26.9137C27.5567 27.2676 28.6089 27.6474 29.1912 28.2135" stroke="black" stroke-linecap="round" stroke-linejoin="round"/>
<path d="M34.4771 28.6719C35.8545 27.3856 37.2476 26.0878 38.7035 24.8849C39.068 24.5838 39.475 24.2005 39.9515 24.0847" stroke="black" stroke-linecap="round" stroke-linejoin="round"/>
<path d="M22.4897 48.856C24.5641 45.2909 26.8015 41.8118 29.2751 38.4991C29.4086 38.3203 29.4481 38.1653 29.7051 38.234C31.0243 38.5867 32.2838 39.4601 33.4805 40.0689C35.8098 41.254 38.2825 42.2553 40.5281 43.5858C41.0927 43.9204 41.6289 44.2915 42.2165 44.5848C42.4719 44.7123 42.7259 44.8833 42.9716 45.0028" stroke="black" stroke-linecap="round" stroke-linejoin="round"/>
</svg>
