<svg width="66" height="66" viewBox="0 0 66 66" fill="none" xmlns="http://www.w3.org/2000/svg">
<path d="M14.7788 6.92987C10.3531 7.77336 8.00329 12.9251 6.12253 16.4321C2.4519 23.2766 1.04988 31.1585 1.01614 38.834C1.00121 42.2303 0.832759 45.7021 2.04015 48.9468C3.03909 51.6312 4.7062 54.1966 6.72328 56.2725C10.7473 60.414 17.6819 62.9197 23.3805 63.731C30.8641 64.7964 38.63 65.654 46.1271 64.3149C51.0664 63.4327 56.8637 62.4008 60.2448 58.4225C63.7642 54.2814 64.874 48.5915 65.2966 43.3728C65.5989 39.6388 65.4574 35.8084 65.3922 32.0657C65.3352 28.7964 64.775 26.0952 63.3032 23.1606C59.1442 14.8683 54.2558 7.76902 44.9666 4.52776C39.628 2.66498 32.0687 -1.0136 26.2068 1.20994C23.3233 2.30368 19.5227 3.45031 17.0999 5.37713C16.3219 5.99588 15.4201 6.45242 14.6696 7.04931C14.2827 7.35696 13.4464 7.9486 13.3042 8.36317" stroke="black" stroke-linecap="round" stroke-linejoin="round"/>
<path d="M22.4181 29.8798C22.1921 29.9976 22.0045 30.0446 22.0045 29.8784C22.0045 29.6145 21.9893 29.4006 22.4111 29.3017C22.4339 29.2963 22.4554 29.2916 22.4758 29.2873C22.4559 29.1349 23.0559 28.941 23.0712 29.3276C23.0728 29.3688 23.0734 29.4093 23.0726 29.4488C23.0712 29.5187 23.0652 29.5852 23.052 29.6454C23.0059 29.855 22.8722 29.9893 22.5378 29.9303C22.4883 29.9215 22.4486 29.9036 22.4181 29.8798Z" fill="white"/>
<path d="M23.1912 29.3535C23.1618 29.3884 22.0045 30.2913 22.0045 29.8784C22.0045 29.6145 21.9893 29.4006 22.4111 29.3017C23.1101 29.1377 22.6689 29.4939 22.4978 29.3276C22.3411 29.1753 23.0545 28.9056 23.0712 29.3276C23.0857 29.6949 23.0226 30.0159 22.5378 29.9303C22.188 29.8684 22.3261 29.35 22.7712 29.4831C23.8476 29.8051 22.2311 31.3014 22.2311 30.0534" stroke="black" stroke-linecap="round" stroke-linejoin="round"/>
<path d="M22.3848 30.4033C22.4974 30.825 22.5673 31.3407 22.1709 31.0838C21.8924 30.9033 21.9687 30.2072 21.9904 29.9172C21.9894 29.8542 21.9909 29.7904 21.9909 29.7294C21.9909 29.4539 22.3359 29.2507 22.7045 29.1789C22.9475 28.999 23.3155 28.9622 23.4843 29.2434C23.5105 29.2871 23.5323 29.3323 23.5501 29.3786C23.8368 29.7774 23.7658 30.6401 23.3776 30.8116C23.1092 30.9302 22.9203 30.926 22.7872 30.8457C22.6447 30.7597 22.5664 30.5863 22.5234 30.3827C22.4726 30.3953 22.4251 30.4025 22.3848 30.4033Z" fill="white"/>
<path d="M22.2309 29.9368C22.2785 30.0216 22.7859 31.4823 22.1709 31.0838C21.8903 30.902 21.9699 30.1968 21.9909 29.9109C22.0244 29.4555 23.2048 29.3803 23.0643 29.9951C23.0135 30.2172 22.5894 30.4034 22.3776 30.4034C21.9534 30.4034 21.9909 30.0314 21.9909 29.7294C21.9909 29.2269 23.138 28.9652 23.4843 29.3017C23.8452 29.6526 23.7931 30.628 23.3776 30.8116C22.4606 31.2168 22.4709 30.1889 22.4709 29.5869C22.4709 29.1408 23.2207 28.8042 23.4843 29.2434C23.8708 29.8875 23.3154 30.8699 22.5909 30.8699" stroke="black" stroke-linecap="round" stroke-linejoin="round"/>
<path d="M40.8273 29.4364C40.8226 29.2603 40.9225 29.1095 41.2184 29.1202C41.7045 29.1377 41.8079 29.7788 41.4805 30.0291C41.4317 30.0664 41.3732 30.0951 41.3051 30.1116C41.0661 30.1697 40.574 30.2857 40.4117 30.0404C40.3464 29.9416 40.2704 29.7901 40.2526 29.6547C40.2336 29.5102 40.2809 29.3839 40.4784 29.3599C40.5778 29.3479 40.7005 29.3776 40.8273 29.4364Z" fill="white"/>
<path d="M41.0717 30.4032C40.6747 30.4573 40.1117 30.6385 40.1117 30.1116C40.1117 29.7383 40.2984 29.4701 40.7051 29.4701C41.1928 29.4701 41.3912 29.82 40.7784 29.82C40.1294 29.82 41.6166 29.5885 41.2851 29.9108C41.0141 30.1741 40.4426 29.0922 41.2184 29.1202C41.777 29.1403 41.8302 29.984 41.3051 30.1116C41.0661 30.1697 40.574 30.2857 40.4117 30.0404C40.2767 29.8362 40.0959 29.4064 40.4784 29.3599C40.9039 29.3082 41.7579 30.0241 41.5251 30.494C41.3965 30.7536 40.6722 31.0076 40.3784 30.9865C40.033 30.9616 40.1117 30.2668 40.1117 30.0533" stroke="black" stroke-linecap="round" stroke-linejoin="round"/>
<path d="M40.1113 30.0535C40.3989 30.0593 40.5931 30.0929 40.8313 30.1701" stroke="black" stroke-linecap="round" stroke-linejoin="round"/>
<path d="M23.791 45.9168C23.8455 44.2744 24.6666 43.6123 25.9711 42.7026C27.0919 41.921 28.3143 41.1588 29.5512 40.5577C31.4326 39.6433 33.4798 38.5144 35.6647 38.6913C36.731 38.7777 38.2785 39.7466 38.9114 40.5771C39.7236 41.6429 40.8872 42.93 41.3115 44.1672" stroke="black" stroke-linecap="round" stroke-linejoin="round"/>
<path d="M43.5283 33.4128C43.8279 33.8882 44.1925 34.3533 44.4466 34.8473" stroke="black" stroke-linecap="round" stroke-linejoin="round"/>
<path d="M45.7261 36.6007C46.1468 37.1875 46.4325 37.8538 46.8411 38.4496" stroke="black" stroke-linecap="round" stroke-linejoin="round"/>
<path d="M47.9888 40.1709C48.2271 41.1406 48.7647 42.0203 49.1366 42.9442" stroke="black" stroke-linecap="round" stroke-linejoin="round"/>
<path d="M19.9209 33.4852C19.8102 34.0036 19.4692 34.34 19.2231 34.7933C19.0632 35.0878 18.8382 35.3579 18.625 35.6169" stroke="black" stroke-linecap="round" stroke-linejoin="round"/>
<path d="M17.6777 37.1189C17.6353 37.6959 17.3964 38.2127 17.2541 38.7661C17.2035 38.9626 17.155 39.1367 17.0298 39.299" stroke="black" stroke-linecap="round" stroke-linejoin="round"/>
<path d="M16.0298 41.6981C16.0298 42.013 16.1568 42.6667 15.9081 42.9354C15.7218 43.1366 15.5317 43.4528 15.5317 43.7316" stroke="black" stroke-linecap="round" stroke-linejoin="round"/>
</svg>
