<svg width="67" height="66" viewBox="0 0 67 66" fill="none" xmlns="http://www.w3.org/2000/svg">
<path d="M14.9253 6.92987C10.4996 7.77336 8.14977 12.9251 6.26901 16.4321C2.59839 23.2766 1.19637 31.1585 1.16262 38.834C1.14769 42.2303 0.979243 45.7021 2.18663 48.9468C3.18557 51.6312 4.85268 54.1966 6.86977 56.2725C10.8938 60.414 17.8284 62.9197 23.527 63.731C31.0105 64.7964 38.7765 65.654 46.2736 64.3149C51.2129 63.4327 57.0102 62.4008 60.3913 58.4225C63.9107 54.2814 65.0205 48.5915 65.4431 43.3728C65.7454 39.6388 65.6039 35.8084 65.5387 32.0657C65.4816 28.7964 64.9215 26.0952 63.4497 23.1606C59.2907 14.8683 54.4023 7.76902 45.1131 4.52776C39.7745 2.66498 32.2152 -1.0136 26.3532 1.20994C23.4698 2.30368 19.6692 3.45031 17.2464 5.37713C16.4684 5.99588 15.5666 6.45242 14.8161 7.04931C14.4292 7.35696 13.5929 7.9486 13.4507 8.36317" stroke="black" stroke-linecap="round" stroke-linejoin="round"/>
<path d="M22.2951 30.789C22.4268 31.2267 22.5359 31.9685 22.4891 32.1455C22.3031 32.8485 21.0336 32.9667 20.8234 32.2516C20.7452 31.9855 20.7348 31.8675 20.753 31.8276C20.189 31.1371 20.7195 30.2155 21.547 30.1149C21.6178 30.1063 21.6908 30.1102 21.7623 30.1242C22.1186 30.1937 22.4408 30.5134 22.2951 30.789Z" fill="white"/>
<path d="M21.8065 31.535C19.979 30.6912 21.17 29.734 22.1478 30.4733C22.3261 30.6081 22.5531 31.9037 22.4891 32.1455C22.3031 32.8485 21.0336 32.9667 20.8234 32.2516C20.5515 31.3266 21.0988 32.191 20.8234 31.9066C20.1485 31.2095 20.6875 30.2194 21.547 30.1149C22.0692 30.0515 22.7078 30.6667 22.0522 31.0041C20.5847 31.7593 21.8723 29.0353 22.5437 30.3406" stroke="black" stroke-linecap="round" stroke-linejoin="round"/>
<path d="M40.2086 31.2146C40.2885 31.2367 40.3524 31.2574 40.3842 31.2686C40.9254 31.4599 39.9975 31.9509 40.2086 31.2146Z" fill="white"/>
<path d="M41.6673 31.6231C43.2667 31.9729 40.6587 33.0776 39.8709 32.6077C39.4622 32.3639 39.4088 31.642 39.486 31.2292C39.5287 31.0009 40.2489 31.2208 40.3842 31.2686C40.9404 31.4652 39.9449 31.9784 40.2288 31.1505C40.4685 30.4516 42.2374 30.8598 40.6948 31.8594" stroke="black" stroke-linecap="round" stroke-linejoin="round"/>
<path d="M24.4062 40.2482C24.5424 41.7373 26.1094 42.1966 27.2629 42.8476C28.5729 43.587 30.284 44.2373 31.8214 44.2655C35.0006 44.3238 35.7415 41.1051 36.5622 38.7122" stroke="black" stroke-linecap="round" stroke-linejoin="round"/>
</svg>
