<svg width="66" height="66" viewBox="0 0 66 66" fill="none" xmlns="http://www.w3.org/2000/svg">
<path d="M14.3521 6.92987C9.92637 7.77336 7.57653 12.9251 5.69577 16.4321C2.02514 23.2766 0.623126 31.1585 0.58938 38.834C0.574448 42.2303 0.406001 45.7021 1.61339 48.9468C2.61233 51.6312 4.27944 54.1966 6.29652 56.2725C10.3206 60.414 17.2552 62.9197 22.9537 63.731C30.4373 64.7964 38.2032 65.654 45.7004 64.3149C50.6396 63.4327 56.4369 62.4008 59.8181 58.4225C63.3375 54.2814 64.4473 48.5915 64.8698 43.3728C65.1722 39.6388 65.0307 35.8084 64.9654 32.0657C64.9084 28.7964 64.3482 26.0952 62.8764 23.1606C58.7175 14.8683 53.8291 7.76902 44.5398 4.52776C39.2012 2.66498 31.6419 -1.0136 25.78 1.20994C22.8966 2.30368 19.096 3.45031 16.6731 5.37713C15.8951 5.99588 14.9934 6.45242 14.2428 7.04931C13.856 7.35696 13.0197 7.9486 12.8775 8.36317" stroke="black" stroke-linecap="round" stroke-linejoin="round"/>
<path d="M22.4946 30.9507C22.2398 30.9571 21.9991 30.8078 22.0312 30.4803C22.0874 29.9069 23.6823 29.1452 23.6144 30.0035C23.6037 30.1395 23.5415 30.2246 23.4532 30.2733C23.9758 30.8205 23.6545 32.0876 22.8414 31.8242C22.6445 31.7604 22.4849 31.2903 22.4946 30.9507Z" fill="white"/>
<path d="M22.6779 30.4225C23.5344 30.4641 23.5778 31.2028 22.7448 31.2028C22.4519 31.2028 22.5567 30.9427 22.8117 30.9427C23.2156 30.9427 22.9529 31.1529 22.7522 30.9933C22.2661 30.6067 22.6164 29.0873 23.0049 30.2202C23.2892 31.0493 21.9584 31.2232 22.0312 30.4803C22.0874 29.9069 23.6823 29.1452 23.6144 30.0035C23.5589 30.7055 22.1343 30.0517 22.8117 30.0324C24.1167 29.9951 23.8812 32.1611 22.8414 31.8242C22.481 31.7074 22.2452 30.2288 22.9455 30.6826" stroke="black" stroke-linecap="round" stroke-linejoin="round"/>
<path d="M40.8665 30.5002C40.8457 30.5361 40.8011 30.5737 40.7253 30.6105C40.5403 30.7005 40.361 30.5963 40.233 30.4123C39.9487 30.0035 39.9169 29.2005 40.6361 29.2523C41.0998 29.2856 41.3728 30.2611 40.8665 30.5002Z" fill="white"/>
<path d="M40.874 30.6828C41.2028 31.1356 41.4332 31.5211 40.7402 31.6943C40.2398 31.8193 40.114 31.4445 40.0787 31.0151C40.0475 30.6372 40.1324 30.3093 40.5767 30.2927C40.8071 30.284 41.0465 30.4545 40.7253 30.6105C40.1295 30.9001 39.5931 29.1772 40.6361 29.2523C41.1647 29.2903 41.4456 30.5527 40.6064 30.5527" stroke="black" stroke-linecap="round" stroke-linejoin="round"/>
<path d="M39.937 29.7723C40.2215 29.5757 41.1434 28.9023 41.3418 29.5195C41.4434 29.8353 41.4654 30.2658 41.1709 30.4948C40.6912 30.8678 40.5881 30.5266 40.3384 30.1625" stroke="black" stroke-linecap="round" stroke-linejoin="round"/>
<path d="M22.4106 46.0282C27.8663 46.0282 33.2879 46.0535 38.726 45.7753C39.8823 45.7162 41.0539 45.7681 42.212 45.7681C42.8418 45.7681 43.4964 45.4387 44.0851 45.2479" stroke="black" stroke-linecap="round" stroke-linejoin="round"/>
</svg>
