<svg width="70" height="66" viewBox="0 0 70 66" fill="none" xmlns="http://www.w3.org/2000/svg">
<path d="M15.0718 6.92987C10.6461 7.77336 8.29626 12.9251 6.4155 16.4321C2.74487 23.2766 1.34285 31.1585 1.30911 38.834C1.29417 42.2303 1.12573 45.7021 2.33312 48.9468C3.33206 51.6312 4.99917 54.1966 7.01625 56.2725C11.0403 60.414 17.9749 62.9197 23.6735 63.731C31.157 64.7964 38.9229 65.654 46.4201 64.3149C51.3594 63.4327 57.1567 62.4008 60.5378 58.4225C64.0572 54.2814 65.167 48.5915 65.5896 43.3728C65.8919 39.6388 65.7504 35.8084 65.6851 32.0657C65.6281 28.7964 65.068 26.0952 63.5962 23.1606C59.4372 14.8683 54.5488 7.76902 45.2596 4.52776C39.921 2.66498 32.3616 -1.0136 26.4997 1.20994C23.6163 2.30368 19.8157 3.45031 17.3929 5.37713C16.6148 5.99588 15.7131 6.45242 14.9626 7.04931C14.5757 7.35696 13.7394 7.9486 13.5972 8.36317" stroke="black" stroke-linecap="round" stroke-linejoin="round"/>
<path d="M38.8145 29.1307C42.1698 29.1307 45.5252 29.1307 48.8805 29.1307" stroke="black" stroke-linecap="round" stroke-linejoin="round"/>
<path d="M16.082 29.5298C18.2911 29.5298 20.6968 29.8143 22.888 29.5222C23.8449 29.3946 24.7416 29.2545 25.7175 29.2545" stroke="black" stroke-linecap="round" stroke-linejoin="round"/>
<path d="M36.5849 49.321C36.4087 49.7654 36.1717 50.2673 35.8332 50.6017C35.7237 50.8283 35.6094 51.0299 35.5009 51.1848C34.7323 52.2813 33.4953 51.7863 32.4429 51.7863C29.7069 51.7863 29.7324 48.8427 30.1745 46.5736C30.2608 46.1306 30.3699 45.4451 30.6997 45.0814C30.7243 44.9412 30.7587 44.8044 30.8035 44.6727C31.4299 42.8326 34.222 43.5547 35.4473 44.2346C37.0895 45.1458 37.2659 47.6034 36.5849 49.321Z" fill="white"/>
<path d="M31.4726 44.8361C31.4726 46.7424 31.0399 49.0782 32.6236 50.3606C33.2462 50.8648 34.3257 51.0361 35.0726 50.9769C35.8528 50.9151 36.2989 50.0422 36.5849 49.321C37.2659 47.6034 37.0895 45.1458 35.4473 44.2346C34.222 43.5547 31.4299 42.8326 30.8035 44.6727C30.1016 46.7345 31.9585 50.0399 34.0288 48.6824C34.9146 48.1016 34.891 47.7702 34.8384 46.633C34.7763 45.2894 34.1006 44.48 32.8711 44.7173C32.0366 44.8783 32.1223 46.4621 32.2488 47.0786C32.5248 48.4228 34.3655 49.482 35.3737 48.3632C36.2527 47.3877 36.1307 44.8591 34.6979 44.5985C33.4318 44.3681 32.8393 46.3116 32.7039 47.4201C32.5747 48.4771 33.9258 48.8233 34.6644 48.4894C36.0189 47.877 35.3497 45.0651 34.2563 44.5688C31.3227 43.237 29.4277 47.6447 32.0749 49.4398C33.7425 50.5707 34.5002 46.0019 33.4533 45.0514C32.9635 44.6067 31.7951 44.8118 31.205 44.8361C30.4594 44.8667 30.2949 45.9559 30.1745 46.5736C29.7324 48.8427 29.7069 51.7863 32.4429 51.7863C33.4953 51.7863 34.7323 52.2813 35.5009 51.1848C35.9144 50.5948 36.4109 49.3264 36.4109 48.5785" stroke="black" stroke-width="2" stroke-linecap="round" stroke-linejoin="round"/>
<path d="M59.3276 8.30316C60.4484 7.92069 61.5994 7.52542 62.7426 7.1897C62.9606 7.12569 63.349 6.90708 63.349 7.22766C63.349 8.58383 63.0618 9.9377 63.0618 11.3019C63.0618 11.6563 62.8247 12.9527 63.349 12.6558C64.5535 11.9736 65.9355 11.4342 67.2268 10.9223" stroke="black" stroke-linecap="round" stroke-linejoin="round"/>
<path d="M65.7759 6.12057C65.9598 5.96434 66.9395 4.98023 67.0978 5.50709C67.2584 6.04207 67.3545 6.60341 67.5169 7.13451C67.5709 7.31113 67.6907 8.50754 67.8752 8.57021C68.1716 8.67093 68.7875 7.70307 69 7.50089" stroke="black" stroke-linecap="round" stroke-linejoin="round"/>
</svg>
